<svg id="Ebene_1" data-name="Ebene 1" xmlns="http://www.w3.org/2000/svg" viewBox="0 0 181.249 219.459"><defs><style>.cls-1{fill:#f0f;}</style></defs><title>vobe_icon</title><path class="cls-1" d="M180.776,19.06l-57.3,195.6a6.308,6.308,0,0,1-6.6,4.8h-47.7q-3.6,0-4.5-.6c-.6-.4-1.2-1.8-1.8-4.2l-55.2-194.7a11.7,11.7,0,0,1-.6-4.8q.6-2.094,5.1-2.7l49.2-5.4q5.7-.6,6.9,4.8l20.1,99.9q.3,1.5,6,41.7,1.8-15.594,6-41.4l21.9-99.3q.9-3.6,2.1-4.351t5.1-.45l46.2,3.6Q182.876,12.164,180.776,19.06Z" transform="translate(0 0)"/><path d="M173.776,12.06l-57.3,195.6a6.308,6.308,0,0,1-6.6,4.8h-47.7q-3.6,0-4.5-.6c-.6-.4-1.2-1.8-1.8-4.2L.676,12.959a11.7,11.7,0,0,1-.6-4.8q.6-2.094,5.1-2.7l49.2-5.4q5.7-.6,6.9,4.8l20.1,99.9q.3,1.5,6,41.7,1.8-15.594,6-41.4l21.9-99.3q.9-3.6,2.1-4.351t5.1-.45l46.2,3.6Q175.876,5.165,173.776,12.06Z" transform="translate(0 0)"/></svg>