<svg id="Ebene_1_Kopie" data-name="Ebene 1 Kopie" xmlns="http://www.w3.org/2000/svg" viewBox="0 0 328.635 115.149"><defs><style>.cls-1{fill:#f0f;}</style></defs><title>vobe_logo</title><path class="cls-1" d="M90.887,14.35l-28.649,97.8a3.155,3.155,0,0,1-3.3,2.4H35.088a5.051,5.051,0,0,1-2.25-.3,4.12,4.12,0,0,1-.9-2.1L4.338,14.8a5.854,5.854,0,0,1-.3-2.4q.3-1.047,2.55-1.349l24.6-2.7a2.825,2.825,0,0,1,3.45,2.4L44.687,60.7q.149.751,3,20.85.9-7.8,3-20.7L61.637,11.2a3.733,3.733,0,0,1,1.05-2.176A4.906,4.906,0,0,1,65.238,8.8l23.1,1.8Q91.938,10.9,90.887,14.35Z" transform="translate(0)"/><path class="cls-1" d="M164.837,75.7q0,17.7-9.6,28.35-9.9,11.1-27,11.1-17.7,0-27.3-10.724T91.337,75.4q0-17.848,9.825-28.649t27.224-10.8q17.4,0,27.151,10.949Q164.835,57.552,164.837,75.7Zm-26.7-.15q0-11.849-2.7-16.95a8.384,8.384,0,0,0-14.7,0q-2.7,4.949-2.7,17.1,0,11.852,2.7,16.8a8.384,8.384,0,0,0,14.7,0Q138.138,87.4,138.136,75.55Z" transform="translate(0)"/><path class="cls-1" d="M248.087,72.4q0,20.851-9,31.2-10.051,11.552-24.9,11.549-6.6,0-13.8-5.4-2.25,4.8-4.8,4.8.6,0-1.951-.3l-17.549-2.1q-1.8-.147-1.5-2.1a3.434,3.434,0,0,1,.3-1.2,52.772,52.772,0,0,0,2.7-16.8V9.85a2.4,2.4,0,0,1,2.25-2.7l22.2-3a4.441,4.441,0,0,1,2.4,0,3.917,3.917,0,0,1,.45,2.4V40.3a27.5,27.5,0,0,1,14.4-4.5q14.4,0,21.6,9.675T248.087,72.4Zm-25.651,1.2q0-10.2-2.7-15.75-2.25-4.95-5.851-4.951-3.751,0-9,3.451v38.7a13.2,13.2,0,0,0,6.151,1.65q4.8,0,8.1-6.075T222.436,73.6Z" transform="translate(0)"/><path class="cls-1" d="M328.635,79q0,2.1-3,2.1H283.786q1.2,14.55,12.6,14.549,9,0,19.351-5.549,2.4-1.2,3.6,1.049l6.75,12.6q.9,1.5-1.05,2.85-12.6,8.55-29.4,8.549-18.448,0-28.049-10.2t-9.6-28.8q0-17.7,9.9-28.949t27-11.25Q328.635,35.95,328.635,79ZM303.286,65.05q-.45-7.048-2.625-9.825t-6.675-2.775q-4.651,0-6.825,2.7t-3.375,9.9Z" transform="translate(0)"/><path d="M86.887,10.35l-28.649,97.8a3.155,3.155,0,0,1-3.3,2.4H31.088a5.051,5.051,0,0,1-2.25-.3,4.12,4.12,0,0,1-.9-2.1L.338,10.8a5.854,5.854,0,0,1-.3-2.4q.3-1.047,2.55-1.349l24.6-2.7a2.825,2.825,0,0,1,3.45,2.4L40.687,56.7q.149.751,3,20.85.9-7.8,3-20.7L57.637,7.2a3.733,3.733,0,0,1,1.05-2.176A4.906,4.906,0,0,1,61.238,4.8l23.1,1.8Q87.938,6.9,86.887,10.35Z" transform="translate(0)"/><path d="M160.837,71.7q0,17.7-9.6,28.35-9.9,11.1-27,11.1-17.7,0-27.3-10.724T87.337,71.4q0-17.848,9.825-28.649t27.224-10.8q17.4,0,27.151,10.949Q160.835,53.552,160.837,71.7Zm-26.7-.15q0-11.848-2.7-16.95a8.384,8.384,0,0,0-14.7,0q-2.7,4.949-2.7,17.1,0,11.852,2.7,16.8a8.384,8.384,0,0,0,14.7,0Q134.138,83.4,134.136,71.55Z" transform="translate(0)"/><path d="M244.087,68.4q0,20.851-9,31.2-10.051,11.552-24.9,11.549-6.6,0-13.8-5.4-2.25,4.8-4.8,4.8.6,0-1.951-.3l-17.549-2.1q-1.8-.147-1.5-2.1a3.434,3.434,0,0,1,.3-1.2,52.772,52.772,0,0,0,2.7-16.8V5.85a2.4,2.4,0,0,1,2.25-2.7l22.2-3a4.441,4.441,0,0,1,2.4,0,3.917,3.917,0,0,1,.45,2.4V36.3a27.5,27.5,0,0,1,14.4-4.5q14.4,0,21.6,9.675T244.087,68.4Zm-25.651,1.2q0-10.2-2.7-15.75-2.25-4.95-5.851-4.951-3.751,0-9,3.451v38.7a13.2,13.2,0,0,0,6.151,1.65q4.8,0,8.1-6.075T218.436,69.6Z" transform="translate(0)"/><path d="M324.635,75q0,2.1-3,2.1H279.786q1.2,14.55,12.6,14.549,9,0,19.351-5.549,2.4-1.2,3.6,1.049l6.75,12.6q.9,1.5-1.05,2.85-12.6,8.55-29.4,8.549-18.448,0-28.049-10.2t-9.6-28.8q0-17.7,9.9-28.949t27-11.25Q324.635,31.95,324.635,75ZM299.286,61.05q-.45-7.048-2.625-9.825t-6.675-2.775q-4.651,0-6.825,2.7t-3.375,9.9Z" transform="translate(0)"/></svg>